<?xml version="1.0" encoding="utf-8"?>
<!-- Generator: Adobe Illustrator 23.0.2, SVG Export Plug-In . SVG Version: 6.00 Build 0)  -->
<svg version="1.1" id="Layer_1" xmlns="http://www.w3.org/2000/svg" xmlns:xlink="http://www.w3.org/1999/xlink" x="0px" y="0px"
	 viewBox="0 0 504 553.9" style="enable-background:new 0 0 504 553.9;" xml:space="preserve">
<style type="text/css">
	.st0{fill:#EEEEEE;}
	.st1{display:none;}
	.st2{display:inline;fill-rule:evenodd;clip-rule:evenodd;}
	.st3{display:inline;fill-rule:evenodd;clip-rule:evenodd;fill:#726658;}
	.st4{display:inline;}
	.st5{fill-rule:evenodd;clip-rule:evenodd;fill:#39B54A;}
	.st6{fill-rule:evenodd;clip-rule:evenodd;fill:#2E8ACA;}
	.st7{fill-rule:evenodd;clip-rule:evenodd;fill:#FFFFFF;}
	.st8{display:inline;fill-rule:evenodd;clip-rule:evenodd;fill:#2E8ACA;}
	.st9{display:inline;fill-rule:evenodd;clip-rule:evenodd;fill:#FFFFFF;}
	.st10{display:none;opacity:0.47;}
	.st11{display:inline;fill:none;stroke:#39B54A;stroke-width:2;stroke-miterlimit:10;}
</style>
<g>
	<path class="st0" d="M484.4,164.7c-0.1-12.7-6.8-24.4-17.8-30.8L268.5,17.5c-5.6-3.3-11.9-5-18.2-5c-6.2,0-12.4,1.6-18,4.8
		L35.8,130.8c-11.2,6.5-18.1,18.5-18,31.5l1.7,229.8c0.1,12.7,6.8,24.4,17.8,30.8l198.1,116.4c5.6,3.3,11.9,5,18.2,5
		c6.2,0,12.4-1.6,18-4.8L468.2,426c11.2-6.5,18.1-18.5,18-31.5L484.4,164.7z M53.8,162L250.3,48.6L448.4,165l0.2,27.3
		c-29.2,6.4-78.1,18.1-128.2,35.2c0-0.7-0.2-1.4-0.5-2.1c-1.3-3.2-5.1-4.8-8.3-3.5l0,0c-2.2,1.3-4.4,2.7-6.7,4
		c-1.3-24.6-9.9-45.5-20.7-58c-0.5-0.9-1.1-1.9-1.8-2.8c-4.4-6.5,1.8-8.9,7.2-12.6l-7.9-0.6c0,0-1-0.5-0.7-2c0.3-1.5,2.2-1,2.2-1
		l7.4,0.6c1.1,0,2.2-0.1,3.3-0.3l3.3-0.6c1-0.2,2.3-0.5,4.1-0.8l15.1-2.9c1.3-0.3,2.8-0.6,4.3-0.9c0.9-0.2,0.9-1.4,0-1.6l-36-7.2
		c-1.8-0.3-5.5-4.8-11.2-5.6c-11.2-1.6-17.2,9-19,15.2c-3.6,12.5-7.8,15.9-11.6,24.6c-8.9,14.9-14,40.5-15,69.7
		c-0.2,6.8-0.5,13.1-0.6,18.8c-2.1,0.5-4.2,1.1-6.2,1.6h0c-3.2,1.3-4.8,5.1-3.5,8.3c0.5,1.2,1.4,2.2,2.5,2.9L55,323L53.8,162z
		 M292.2,213.4c-6.3-29.9-36.1-45.9-32.5-50c1.3-1.5,5.5-1.6,7.7-1.7c19.8-0.4,44.6,58,23.6,68C287.5,231.4,294.1,222.5,292.2,213.4
		z M278.5,144.2c0.1,0,0.9,0,1.2-0.4c-0.6,1.3-2.8,2.4-4.2,2.4c-2.9,0-5.2-2.6-5.2-5.8c0-3.2,2.3-5.8,5.1-5.8c2.8,0,5,2.4,5.1,5.5
		c-0.3-1-1-1.8-1.8-1.8c-1.1,0-2.2,1.5-2.2,3C276.6,143.7,277.9,144.2,278.5,144.2z M197,285.3c-10,6.8-18.7,13.6-26.2,20.1
		l-99.9,17.2L197,285.3z M83.6,408.3l-28-16.5l-0.1-18.2c5.1,2,13,4.4,19.8,4c-4.7,9.8,2,23.3,12.4,24.4
		C86.1,403.8,84.8,406,83.6,408.3z M87.1,379.2c0-5.1,3.4-8.6,7.7-10.8c-3.7-4.6-16.3-3.4-16.3-3.4s28.8-14.5,40-12.7
		c-3.9,7.6-6.3,14.6-8.2,22.1c6.8,2.7,13.8,4.7,23.2,6.1c-5,10.2-34,25.7-34,25.7s9.1-9.1,7.1-14.6c-4.4,2.3-10.7,1.1-13.6-0.9
		C90.8,389.1,87.1,386.4,87.1,379.2z M96,415.5c14.8-9.5,42.5-29.7,47.5-39.9c-18-0.5-27.4-4.1-27.4-4.1s2.5-9.7,12.6-24.6
		c-13.8-2.3-60,14.7-68.4,19l-4.9,2.5l-0.3-43.2l83,15.7c-11.3,16.2-14.1,26.9-14.1,26.9s85.8-17.7,178.8-65.6
		c60-30.9,114.8-70.1,146-94l0,3c-31.3,27-86.2,70.7-146.4,101.7c-92.9,47.8-178.5,55-178.5,55s10.5,4,30.8,4.1l-27.5,61.9L96,415.5
		z M206.2,365c1.3-0.4,2.7-0.7,4.1-1.1c0.1,0,0.2,0,0.3-0.1c1.2-0.3,2.5-0.7,3.7-1.1c0.2-0.1,0.5-0.2,0.7-0.2
		c1.1-0.3,2.3-0.7,3.5-1.1c0.2-0.1,0.5-0.1,0.7-0.2c1.3-0.4,2.6-0.8,3.9-1.3c0.1,0,0.2,0,0.2-0.1c5.9-2,12.1-4.2,18.6-6.8
		l-111.2,87.7L206.2,365z M253.7,508.2l-115.9-68.1L272,339.5l0,0c0.8-0.4,1.6-0.8,2.5-1.2c66.8-34.4,137-93.2,174.4-126.5l1.4,183
		L253.7,508.2z"/>
</g>
<g id="Layer_10" class="st1">
	<rect y="61" class="st2" width="504" height="432"/>
	<rect y="61" class="st3" width="504" height="432"/>
</g>
<g id="Ship_1" class="st1">
	<g class="st4">
		<g>
			<path class="st5" d="M125.2,359.7c0,0,2.3-8.9,11.6-22.5c-12.6-2.2-37.6,4.4-45.2,8.3l-41.7,21.3v0c13.7-7,61.9-17.5,68.9-3.8
				s-29.9,46.5-43.6,53.5v0l41.7-21.3c7.7-3.9,27.6-20.2,33.3-31.7C133.8,363,125.2,359.7,125.2,359.7z"/>
			<polygon class="st5" points="190.6,249.5 61.4,315.3 163.3,308.7 229.6,262.6 			"/>
			<polygon id="white_rudder_19_" class="st5" points="189.9,254.7 90.4,305.4 206.6,260.4 			"/>
			<polygon class="st5" points="252.6,371.2 123.4,437.1 188.6,358.5 264.9,332 			"/>
			<polygon id="white_rudder_18_" class="st5" points="248,368.7 148.5,419.4 253.2,351.8 			"/>
			<path class="st5" d="M231.8,261.5c-89.1,45.4-102.4,95.9-102.4,95.9s48.6,18.9,137.7-26.5S452,193,452,193
				S320.9,216.1,231.8,261.5z"/>
		</g>
		<path class="st5" d="M129.4,357.3c0,0,78.3-6.2,163.5-49.6S452,193,452,193s-71,66.3-156.1,109.7S129.4,357.3,129.4,357.3z"/>
	</g>
	<g class="st4">
		<g>
			<path class="st6" d="M125.2,359.7c0,0,2.3-8.9,11.6-22.5c-12.6-2.2-37.6,4.4-45.2,8.3l-41.7,21.3v0c13.7-7,61.9-17.5,68.9-3.8
				s-29.9,46.5-43.6,53.5v0l41.7-21.3c7.7-3.9,27.6-20.2,33.3-31.7C133.8,363,125.2,359.7,125.2,359.7z"/>
			<polygon class="st6" points="190.6,249.5 61.4,315.3 163.3,308.7 229.6,262.6 			"/>
			<polygon id="white_rudder_17_" class="st7" points="189.9,254.7 90.4,305.4 206.6,260.4 			"/>
			<polygon class="st6" points="252.6,371.2 123.4,437.1 188.6,358.5 264.9,332 			"/>
			<polygon id="white_rudder_16_" class="st7" points="248,368.7 148.5,419.4 253.2,351.8 			"/>
			<path class="st6" d="M231.8,261.5c-89.1,45.4-102.4,95.9-102.4,95.9s48.6,18.9,137.7-26.5S452,193,452,193
				S320.9,216.1,231.8,261.5z"/>
		</g>
		<path class="st7" d="M129.4,357.3c0,0,78.3-6.2,163.5-49.6S452,193,452,193s-71,66.3-156.1,109.7S129.4,357.3,129.4,357.3z"/>
	</g>
</g>
<g id="Penguin" class="st1">
	<path class="st8" d="M292.9,153.6c-0.2,5.9-17.9,8.8-12,17.3c28.3,41.6-49.8,51.7-38.8,11.5c4-14.6,9-15.6,13.2-30.1
		c1.6-5.7,8.8-10.4,19.1-10C284.8,142.6,293.1,147.7,292.9,153.6z"/>
	<path id="Body_1_" class="st8" d="M301.3,240.4c-0.3,4-2.4,59.7-40.5,59.3c-33.3-0.3-31.4-18.5-29.9-61.2s12.7-77.1,32-76.4
		C282.3,162.8,304.4,197.3,301.3,240.4z"/>
	<path id="Chest_1_" class="st9" d="M295.5,227.1c-0.2,1.7-0.2,3.8-0.2,5.4c0,1.1-3-1.8-3.2-10.4c-0.9-38.5-44.8-52.1-27.4-51.5
		C282.1,171.3,299.1,198.1,295.5,227.1z"/>
	<path class="st8" d="M289.6,157.9c-4.4,2.8-11.1-15.3-11.1-15.3l37.4,7.5c0.8,0.2,0.8,1.3,0,1.5
		C292.2,156.6,293.8,155.2,289.6,157.9z"/>
	<g id="eye_1_" class="st4">
		<ellipse class="st7" cx="275.4" cy="150.5" rx="4.3" ry="4.8"/>
		<ellipse class="st6" cx="278.1" cy="151.4" rx="1.7" ry="2.6"/>
	</g>
	<path class="st9" d="M281.7,157.9l8,0.6l26.6-5.4c0.3-0.1,0.5-0.4,0.5-0.8l0,0c0-0.4-0.3-0.7-0.6-0.6l-24.7,4.8c-1,0.2-2,0.3-3,0.3
		l-6.8-0.5c-0.4-0.1-0.6,0.6-0.6,0.8C281.1,157.2,281.2,157.9,281.7,157.9z"/>
</g>
<g id="ORIGINAL" class="st1">
	<path class="st8" d="M256.8,303.8c-15,0.7-30.7,3.4-45.8,4.5c-1.3,3.5-4.6,6.4-6.6,9.6c-6-13.9-25.1-41.8-19.2-56.2
		c2.6-6.4,10.5-8.4,12.8-15.9c6.4-2.4,18.8,2,19.1-7.6c20.8-0.1,37.5,33.5,43.4,54.3c2.5-7.3,7.4-13.8-1-24.6
		c4.1-0.6,6.4,4.5,10.9,2.8c0.5-4,5.7-6.5,4.9-10.9c-8.3-10.1-16.2-13.9-25.2-18.6c-8.4-4.4-19.1-8.3-25.6-15.2
		c-7.6-8.3-9.8-19.6-16.5-26.1c-16.5-16.1-48.6-4.4-51.6,17.9c-1.4,10.6,7.3,25.1,9.5,39.1c1.5,9.4-1.9,18.7-1.5,28
		c0.7,15.3,9,36.4,21.2,45.7c8.2-8.2-1.2-22.1-1.1-32.9c4.6,10.6,4.4,16.2,10.7,31.2c4.2-2.3,5.7-10.6,9.1-10.9
		c-18.9,27.1-37.7,55.7-56.1,83c14.1-13,29.4-25.6,53.1-35.4c7,6.2,15.2,8.7,21.8,16.1c-4.6,10.3-8.2,20.9-13.5,31
		c-13.7,1.3-27.4,15-31.5,22.3c-4.5,7.9-2.5,16.6-5.2,26.7c-2.9,10.6-11.1,17.8-11.9,28c6.1-0.4,11.6,1.2,17.9,0.3
		c6.5-9.5,22.2-11.7,32.4-18.6c16.9-11.4,22.6-26.4,19.7-45.6c9.4-7.3,15.9-15.6,24.9-23.1c7.3,5.9,15.4,9.4,22.6,15.7
		c0.8,21.8-3.2,42-13.3,60.1c21.4-30.3,41.8-60.8,62.3-91.4c-4.7-14.9-8.1-29.4-12-44.1c32.4-28.3,59.1-67.8,73.9-105.7
		c3.6-9.1,19.5-42.2,29.7-96.8l0,0C349.6,179.5,278.5,249.4,256.8,303.8z M194.6,241.3c6.5-0.1,12.5,1.4,19.6-0.6
		C209.1,245.1,199.9,243.7,194.6,241.3z M214.2,238.6c-7.8,1.8-15.2,2.6-21.3-0.7c5.2-4.3,4.4-10.6,12.8-13.9
		c2.3,2.8,4.5,6.1,6.3,10.4c0.2-3.4-1.6-7.4-3.8-11.6C217.5,218.9,214.9,234.9,214.2,238.6z M198.1,202.9c2.4,1.7,7,3.2,7.8,7
		c-2-2.2-4.2-1.8-6-1.1c-1.8,1.9-2.2,3.3-0.9,6.3c1,2.4,6.6,3,8.4,0c0.7-1.2,0.2,2.7-0.8,4.5C196.6,228.4,185.1,205.7,198.1,202.9z
		 M189,218c-1.9,0-3.3-1.2-5.8,0.9c-1.4,1.6-1.3,3.7,0.1,6.3c1.1,3.1,7.1,0.2,7.5-1.2c0.3-1.2,2.1,2.2-0.4,4.9
		C171,239.8,174.2,199.4,189,218z M175.7,369.2c8.9-15,26.5-40.7,36.6-56.3c12.1-1.7,23.8-3,35.8-3.6c-13,12.9-25.1,26-36.4,39.5
		c-0.3-6.6,0.4-8.6,0.7-12.9C201.3,345.7,185.5,359.8,175.7,369.2z M208.7,412.7c0,0,0,0,0.9-0.1l-6.2,20.2l-1.2,0.3L208.7,412.7z
		 M206.9,438c19-36,45.4-72.9,69.2-108.5c2.7-4,7.3-13.6,12.4-10.5c3.8,3.3-2.5,10.3-7.4,16.3C256.4,366.2,233.1,409.7,206.9,438z
		 M322.5,387.5c-10.6,15.5-21.1,29.3-33,46.1c5.1-15.9,10.3-27.2,15.1-42.2c-12.5,7.3-4.7,3.1-15.4,8.9
		c5.8-13.2,13.5-34.9,21.7-48.7C320,378.4,313.5,359.2,322.5,387.5z M263.4,303.3c28.1-52.7,71.3-101.6,139.2-147.5
		C343.4,202.6,297.8,251.9,263.4,303.3z"/>
	<path class="st8" d="M233.6,266.1c-13.7-6.2-28.9-10.8-43-16.6c-2.8,2.5-6.9,3.6-10.2,5.6c0.9-15.1-3.6-48.6,8.2-58.8
		c5.3-4.6,13.2-2.7,18.6-8.4c6.8,0.7,15.9,10.2,20.5,1.8c18.6,9.3,18.4,46.8,14.2,68c5.6-5.3,12.8-8.9,10.2-22.4
		c3.9,1.3,3.6,6.9,8.4,7.4c2.3-3.3,8-3.2,9.3-7.5c-2.9-12.7-8.2-19.7-14.1-27.9c-5.6-7.7-13.4-16-15.9-25.1
		c-3.1-10.8,0.1-21.9-2.9-30.8c-7.5-21.8-41.4-25.8-54.1-7.3c-6,8.8-4.9,25.7-9.2,39.2c-2.9,9.1-10.1,15.9-13.9,24.3
		c-6.2,14-8.4,36.6-1.7,50.4c11-3.6,8.9-20.3,13.9-29.9c-0.7,11.6-3.4,16.4-4.6,32.7c4.8-0.2,9.9-6.9,13-5.6
		c-29.1,15.7-58.8,32.7-87.5,48.8c18.4-5.3,37.7-9.6,63.4-7.7c3.4,8.7,9.7,14.6,12.2,24.2c-8.7,7.1-16.7,15-26,21.5
		c-12.8-5-31.2,1.1-38.2,5.7c-7.6,5-9.7,13.7-16.7,21.5c-7.3,8.2-17.9,10.9-23.2,19.7c5.6,2.4,9.8,6.3,15.9,8.3
		c10.1-5.6,25.1-0.4,37.3-2c20.2-2.6,32.1-13.4,38.1-31.9c11.7-2.3,21.2-6.8,32.6-9.4c3.9,8.6,9.6,15.3,13.1,24.2
		c-9.1,19.8-21.8,36-39,47.7c32.7-17.4,64.8-35.4,96.8-53.5c2.5-15.5,6.1-29.9,9.2-44.8c41.7-10.6,83.3-33.9,113.5-61
		c7.3-6.5,36.4-28.9,70.1-73l0,0C372.5,197,277.4,227.3,233.6,266.1z M206.2,182.3c5.8,2.9,10.5,6.9,17.8,8.3
		C217.4,192.2,209.8,186.8,206.2,182.3z M224.9,188.7c-7.8-1.9-14.7-4.6-18.7-10.2c6.6-1.5,8.7-7.5,17.7-6.6c0.8,3.6,1.2,7.5,1,12.1
		c1.7-2.9,2-7.3,1.8-12.1C236.7,172.6,227.2,185.7,224.9,188.7z M226.6,149.6c1.4,2.6,4.8,6,3.8,9.7c-0.8-2.9-2.9-3.5-4.8-3.7
		c-2.5,0.9-3.5,1.9-3.6,5.2c-0.1,2.6,4.5,5.7,7.5,3.8c1.1-0.7-1,2.5-2.8,3.6C213.8,171.6,213.7,146.2,226.6,149.6z M211.7,158.9
		c-1.7-0.8-2.4-2.6-5.6-1.8c-1.9,0.9-2.8,2.8-2.8,5.6c-0.5,3.3,6.2,3.4,7.2,2.3c0.8-0.9,0.9,2.9-2.6,4.2
		C185.8,170.3,206.9,135.7,211.7,158.9z M131.7,287.9c14.8-9.4,42-24.4,58-33.8c11.6,4,22.6,8,33.6,12.9
		c-17.4,5.6-34.1,11.9-50.3,18.8c2.8-6,4.2-7.5,6.5-11.2C165.1,278.5,144.6,284,131.7,287.9z M141.5,341.6c0,0,0,0,0.9,0.3
		l-14.6,15.2l-1.2-0.2L141.5,341.6z M128.5,363.4c33.2-23.6,73.4-44.6,110.7-65.7c4.2-2.4,12.6-8.9,15.8-3.8
		c1.8,4.7-6.9,8-13.9,11.2C205,321.6,164.7,350,128.5,363.4z M254.4,370.5c-16.5,9-32.1,16.6-50.3,26.3
		c11.7-11.9,21.4-19.6,32.5-30.9c-14.4,0.9-5.6,0.6-17.7,1c11.2-9.2,27.8-25.1,41.3-33.7C256.3,361.1,259.2,341.1,254.4,370.5z
		 M239.6,268.6c48.9-34.3,109.4-58.5,190.7-68.9C356.5,214.8,293.5,238.2,239.6,268.6z"/>
</g>
<g id="Ship_2_horizontal" class="st1">
	<g class="st4">
		<path id="exhaust_3_" class="st6" d="M115.6,290.8c0,0,6.1-6.8,20.5-14.8c-10.3-7.7-55-13.1-63.6-13.1H45.3v0
			c0.6,0,63.2,12.5,63.2,27.9c0,15.4-63.2,27.9-63.2,27.9v0h27.3c8.6,0,53.3-5.5,63.6-13.1C121.7,297.6,115.6,290.8,115.6,290.8z"/>
		<g id="Bottom_wing_3_">
			<polygon class="st6" points="78.9,358.9 172.7,318.5 252.7,329.5 			"/>
			<polygon id="white_rudder_9_" class="st7" points="232.2,327.4 97.2,353.7 234.9,322.1 			"/>
		</g>
		<g id="Top_wing_3_">
			<polygon class="st6" points="78.9,224.6 172.7,265 252.7,254 			"/>
			<polygon id="white_rudder_8_" class="st7" points="232.2,256.1 97.2,229.8 234.9,261.4 			"/>
		</g>
		<path id="Ship_body_3_" class="st6" d="M255.2,251.7c-100,0-134.8,38.9-134.8,38.9s34.8,38.9,134.8,38.9
			c100,0,227.3-38.9,227.3-38.9S355.2,251.7,255.2,251.7z"/>
	</g>
	<path id="Ship_shine_3_" class="st9" d="M120.4,290.6c0,0,72.6,30,168.2,30s193.9-30,193.9-30s-93.3,26.8-188.9,26.8
		S120.4,290.6,120.4,290.6z"/>
</g>
<g id="Ship_2_angled" class="st1">
	<g class="st4">
		<g id="exhaust_original" class="st1">
			<path id="exhaust_1_" class="st8" d="M131.6,358.8c0,0,2.3-8.9,11.5-22.5c-12.6-2.1-54.9,13.5-62.5,17.4l-24.3,12.5v0
				c0.6-0.3,61.9-17.8,68.9-4.1c7.1,13.7-43.4,53.7-43.4,53.7v0l24.3-12.5c7.6-3.9,44.9-29.3,50.5-40.8
				C140.2,362,131.6,358.8,131.6,358.8z"/>
			<circle id="exhaust_bubble" class="st8" cx="117.2" cy="367.1" r="16.5"/>
		</g>
		<path class="st6" d="M131.6,358.8c0,0,2.3-8.9,11.5-22.5c-12.6-2.1-54.9,13.5-62.5,17.4l-24.3,12.5v0c0.4-0.2,27.5-8,47.8-9.2
			c-2.2,2.8-3.5,6.3-3.5,10.2c0,8.7,6.7,15.8,15.3,16.4c-13,15.5-34,32.2-34,32.2v0l24.3-12.5c7.6-3.9,44.9-29.3,50.5-40.8
			C140.2,362,131.6,358.8,131.6,358.8z M113.2,394.2l5.9-6.1c3.4-3.5,4.4-7.1,3.8-11c-1.7,1-3.7,1.8-5.8,1.8c-6.6,0-12-5.4-12-12
			c0-4.6,2.6-8.7,6.5-10.7c-3.4-3.5-7.4-5.1-12.9-4l-6.4,0.9c0,0,31.3-13.6,41.5-11.9c-3.5,6.9-5.8,13.4-7.5,20.2
			c6.2,2.5,12.6,4.3,21.2,5.6C142.9,376.2,113.2,394.2,113.2,394.2z"/>
		<g id="wings">
			<g id="Bottom_wing_1_">
				<polygon class="st6" points="130.2,436.1 164,360.2 271.2,330.5 				"/>
				<polygon id="white_rudder_5_" class="st7" points="250,338 142,423.1 225.6,339.1 				"/>
			</g>
			<g id="Top_wing_1_">
				<polygon class="st6" points="68.7,316.7 149.6,332 236.6,263.3 				"/>
				<polygon id="white_rudder_4_" class="st7" points="219.4,276 87.3,315 210.7,293.8 				"/>
			</g>
		</g>
		<path id="Ship_body_1_" class="st6" d="M237.8,260.1c-88.9,45.8-102,96.3-102,96.3s48.7,18.7,137.6-27.1s184.3-138.6,184.3-138.6
			S326.7,214.4,237.8,260.1z"/>
	</g>
	<path id="Ship_shine_1_" class="st9" d="M135.8,356.4c0,0,78.2-6.5,163.2-50.3s158.7-115.4,158.7-115.4S386.6,256,301.6,299.8
		S135.8,356.4,135.8,356.4z"/>
</g>
<g id="Penguin_merged" class="st1">
	<path class="st8" d="M315.9,150.1l-35.3-7.1c-0.6-0.1-1.2-0.2-1.8-0.4l-0.3-0.1v0c-1.3-0.2-2.7-0.4-4.1-0.4
		c-10.4-0.4-17.5,4.4-19.1,10c-3.3,11.5-7.2,14.5-10.6,22.5c-8.1,13.7-12.8,37.1-13.8,63.8c-1.5,42.8-3.4,61,29.9,61.2
		c38,0.3,40.2-55.3,40.5-59.3c2-28.5-6.9-53.2-18.8-66.9c-0.5-0.9-1-1.7-1.6-2.6c-4-5.9,3.1-9.1,8-12.5l-7.2-0.6
		c-0.4,0-0.6-0.7-0.6-0.9c0-0.3,0.2-0.9,0.6-0.8l6.8,0.5c1,0,2-0.1,3-0.3l3-0.6c0.9-0.2,2.1-0.4,3.7-0.7l13.8-2.6
		c1.2-0.2,2.5-0.5,3.9-0.8C316.7,151.5,316.7,150.3,315.9,150.1z M295.5,227.1c-0.2,1.7-0.2,3.8-0.2,5.4c0,1.1-3-1.8-3.2-10.4
		c-0.9-38.5-44.8-52.1-27.4-51.5C282.1,171.3,299.1,198.1,295.5,227.1z M278.1,148.8c-0.9,0-1.7,1.1-1.7,2.6s0.8,2.6,1.7,2.6
		c0.1,0,0.2,0,0.3,0c-0.8,0.9-1.8,1.4-3,1.4c-2.4,0-4.3-2.1-4.3-4.8c0-2.6,1.9-4.8,4.3-4.8c2.3,0,4.1,2,4.3,4.6
		C279.4,149.4,278.8,148.8,278.1,148.8z"/>
</g>
<g id="Ship_2_merged" class="st1">
	<path class="st8" d="M131.6,358.8c0,0,2.3-8.9,11.5-22.5c-12.6-2.1-54.9,13.5-62.5,17.4l-24.3,12.5v0c0.4-0.2,27.5-8,47.8-9.2
		c-2.2,2.8-3.5,6.3-3.5,10.2c0,8.7,6.7,15.8,15.3,16.4c-13,15.5-34,32.2-34,32.2v0l24.3-12.5c7.6-3.9,44.9-29.3,50.5-40.8
		C140.2,362,131.6,358.8,131.6,358.8z M113.2,394.2l5.9-6.1c3.4-3.5,4.4-7.1,3.8-11c-1.7,1-3.7,1.8-5.8,1.8c-6.6,0-12-5.4-12-12
		c0-4.6,2.6-8.7,6.5-10.7c-3.4-3.5-7.4-5.1-12.9-4l-6.4,0.9c0,0,31.3-13.6,41.5-11.9c-3.5,6.9-5.8,13.4-7.5,20.2
		c6.2,2.5,12.6,4.3,21.2,5.6C142.9,376.2,113.2,394.2,113.2,394.2z"/>
	<g class="st4">
		<path class="st6" d="M457.7,190.7c0,0-131,23.7-219.9,69.4c-4.4,2.3-8.7,4.6-12.8,6.9L68.7,316.7l80,15.1
			c-10.4,14.8-12.9,24.6-12.9,24.6s80.8-12.9,165.8-56.6S457.7,190.7,457.7,190.7z M202.6,280.9c-9.2,6.2-17.1,12.4-24,18.4
			L87.3,315L202.6,280.9L202.6,280.9z"/>
		<path class="st6" d="M457.7,190.7c0,0-73.7,71.7-158.7,115.4s-163.2,50.3-163.2,50.3s9.6,3.7,28.2,3.8l-33.8,76l141-105.7l0,0
			c0.8-0.4,1.5-0.8,2.3-1.1C362.3,283.6,457.7,190.7,457.7,190.7z M142,423.1l69-69.4c1.2-0.3,2.5-0.6,3.7-1c0.1,0,0.2,0,0.3-0.1
			c1.1-0.3,2.3-0.6,3.4-1c0.2-0.1,0.4-0.1,0.7-0.2c1.1-0.3,2.1-0.6,3.2-1c0.2-0.1,0.4-0.1,0.6-0.2c1.2-0.4,2.4-0.8,3.6-1.1
			c0.1,0,0.1,0,0.2-0.1c5.4-1.8,11.1-3.9,17-6.2l0,0L142,423.1z"/>
	</g>
</g>
<g id="Angles" class="st10">
	<line class="st11" x1="523.2" y1="158.6" x2="56.6" y2="396.3"/>
	<line class="st11" x1="189.8" y1="65.6" x2="427.5" y2="532.2"/>
</g>
</svg>
