<?xml version="1.0" encoding="UTF-8"?>
<svg enable-background="new 0 0 171.9 184.3" version="1.1" viewBox="0 0 171.9 184.3" xml:space="preserve" xmlns="http://www.w3.org/2000/svg">
<style type="text/css">
	.st0{stroke:#000000;stroke-width:0.2996;}
	.st1{fill:#BC2632;}
	.st2{fill:#F5D125;}
	.st3{fill:#BFBFBF;}
	.st4{fill:#FFFFFF;}
	.st5{fill:#212828;}
	.st6{fill:#D7A335;}
	.st7{fill:#F5D326;}
	.st8{fill:#F18C91;}
	.st9{fill:#8B9299;}
	.st10{fill:#BFBFBF;enable-background:new    ;}
</style>
<path class="st0" d="m97.6 65.2c1.9 2.6 2.2 4.5 5.4 3.9 3.3-0.6 6.6-1.2 9.8-1.7-1.7-1.7-2.6-5.1-3.4-7.3-2-5.2-1.9-10.5-2.1-16-0.6-5.6-1.5-10.1-4.3-14.9-2.7-4.6-8.2-7.5-13.2-8.7-10.3-2.5-20.7 3.4-22.9 13.8-1.1 5.2-0.6 11.2 0.1 16.5 0.6 5.5 2.3 14.8-2.1 19.2 10.8-1.7 21.7-3.3 32.7-4.8"/>
<path class="st1" d="m98.7 124.4c18-2.3 30.9-8.2 30.9-8.2 2.1-4 1.8-8.7 1.5-13-0.4-3.7-1.6-7.3-2.8-10.9-0.1-0.1-1.5-4.1-2.2-5.7-0.6-1.2-1.2-2.2-1.6-3.3-0.3-0.3-1.5-1.9-1.6-2.2-1.5-1.8-2.8-3.4-4.5-5.1l-40.3 17.6-20.2-14.6c-0.1 0.3-3 3.5-3.8 5.2-0.4 0.9-1.6 4.8-1.6 5.1-1.5 4.3-2.8 8.7-5.4 12.7-0.1 0.3-0.7 1.3-0.9 1.6 0 0.1-0.7 1.2-1.2 1.8 0 0.1-0.4 1.2-0.4 1.5-0.6 2.2-1 4.8 0.3 6.9 1.8-1 3.9-2.1 5.8-0.9 2.5 1.5 4.5 3.7 6.3 6.3 1.3 1.9 2.5 3.8 3.6 5.7 0.1 0.1 21.7 1.6 38.1-0.5z"/>
		<path class="st2" d="m113 116.1s-6.9-2.3-7.4 0 0.3 11.7-0.5 19-6.1 16.5 1.9 19.6c12.2 4.6 17.3-6.8 24.1-9.9 6.9-3.2 16.8-8.2 8-13.1-10.1-5.7-3.8-13.4-9.6-14.6-6.2-1.3-16.5-1-16.5-1z"/>
		<path class="st3" d="m96.9 61.9c-8.8 1.8-6.7 5.8-14.1 6.6-7.6 0.9-9.5-5.2-11.9-5.9h-0.1c-0.1 0.4-0.2 1.6-0.2 2.1 0 0.3 0.2 3.1 0 3.8 0.4-0.1 0.7-0.3 1.2-0.2 2 0.5 3.7 6.8 7.4 6.8 6.5 0 13.3-9 16.2-9s4.5 3 4.5 3 0 0 0.1-0.1c-0.8-1.4-1.6-2.7-2.1-4.1-0.1-0.7-0.6-2.2-1-3z"/>
<path class="st4" d="m79 48c0 0.4 0 0.9-0.1 1.3-1.4 0.6-2.6 1.1-3.9 2-0.2 0.1-1.9 1.2-1.7 1.3 0.7 0.4-0.7 2.4-2.3 2.3-0.4-0.1-0.8-1.3-1.2-2-0.1-0.2-0.1-0.4-0.2-0.5-0.5-1.3-0.7-2.8-0.7-4.4 0-4.7 2.3-8.4 5-8.4 2.8 0 5.1 3.7 5.1 8.4z"/>
<path class="st4" d="m97.5 47.8c0 2.2-0.6 4.4-1.6 6-2.2 1-9.8-2.7-11.3-4-0.6-0.6-0.6-1.8-0.6-2.3 0-5 2.8-8.7 6.6-8.7s6.9 4 6.9 9z"/>
<path class="st5" d="m94.6 48.4c0 2.4-1.6 4.3-3.6 4.3s-3.6-1.9-3.6-4.3 1.6-4.3 3.6-4.3 3.6 2 3.6 4.3z"/>
<path class="st6" d="m97.5 55.5c-0.4-0.6-0.9-1.5-1.7-1.7 0-0.1-0.1 0-0.1 0-2.2 1-12.2-4.6-12.2-4.7-1.4-0.1-2.9-0.3-4.3 0-0.4 0.1-0.7 0.2-1.1 0.4 0.2-0.3-1.5 0.8-3.4 2-0.1 0.1-2.3 2.9-4.1 3.4-0.4 0.1-1.3 1.6-1.3 1.6-1.3 1.8 0.2 3.9 0.2 3.9s0.9 1.4 1.2 2l0.4 0.4c2.2 1.3 4.3 6.6 11.5 5.8 7.4-0.8 5.5-4.8 14.2-6.6 0.3-0.3 0.1-1.1 0.3-1.4 0.6-1.2 0.7-3.7 0.7-3.7 0.2-0.4 0-0.9-0.3-1.4zm-2.7 1.6c-2.9 0.1-6.2 5.6-14.6 6.3-1.2 0.1-3 0-3.3-0.1 0.1-0.4 0.2-0.8 0.3-1.1 1.2-3.1 3.5-8.8 7.2-9.6 2-0.5 4.5 0.3 6.2 1 1.9 0.8 4.3 0.8 6 1.8v0.1c0.3 0.5 0.5 1 0.5 1.5l-2.3 0.1z"/>
<path class="st4" d="m93.6 47.3c0 0.3-0.1 0.7-0.2 1-0.2 0.4-0.6-0.8-1.3-1.6-0.7-0.7-1.7-1-1.5-1.2 0.3-0.3 0.7-0.4 1.1-0.4 1-0.1 1.9 0.9 1.9 2.2z"/>
<path class="st5" d="m76.7 48.3c0.1 0.7 0.1 1.5 0 2.1-0.8 0.5-2.9 2-3.3 2.3-1.1-0.5-2-1.8-2.2-3.4-0.4-2.3 0.6-4.3 2.1-4.5 1.4-0.4 3 1.2 3.4 3.5z"/>
<path class="st4" d="m73.8 45.6c1.2-0.6 2.4 2.6 1.5 3.9-0.2 0.2-0.7-1.5-0.9-1.9-0.7-1.1-1.3-1.7-0.6-2z"/>
<path class="st3" d="m68.9 46.9c0-0.3 1.2-3.1 4.2-3.7 3.4-0.7 4.6 0.1 5.3 1.1-0.6-2.4-2.5-5.8-5.9-4.4-3.3 1.4-3.6 7-3.6 7z"/>
<path class="st3" d="m84.4 44.2s1.3-6.6 7.9-5.3c2.8 0.6 5.5 5.4 5.1 8.1 0 0-0.6-4.3-5.9-4.6-4.3-0.2-7.1 1.8-7.1 1.8z"/>
<path class="st2" d="m96.5 55.4c-1.7-1-4.1-1-6-1.8-1.7-0.7-4.2-1.5-6.2-1-3.6 0.8-6 6.5-7.2 9.6-0.1 0.4-0.2 0.8-0.3 1.1 1 0.1 2.1 0.2 3.4 0.1 8.4-0.7 11.7-6.2 14.6-6.3l2.1-0.1c0-0.5-0.2-1-0.5-1.5"/>
<path class="st0" d="m76.6 52.3c0.3 0.2 1.8-0.9 1.5-1.1-0.2-0.3-2 0.8-1.5 1.1z"/>
<path class="st0" d="m82.9 51.3c0.2-0.1 2.5-0.6 2.5 0.7 0 0.5-3.1-0.4-2.5-0.7z"/>
<path class="st7" d="m77.5 65.2c0-0.6 0.8-1 1.8-1s1.8 0.5 1.8 1c0 0.6-0.8 1-1.8 1-0.9 0-1.8-0.5-1.8-1z"/>
	<path class="st0" d="m94.9 56.4c-1.4 0-2.6 0.9-4.2 2-2.4 1.7-5.5 3.8-10.4 4.2-3.2 0.3-5.7-0.3-7.7-1.9-1.1-0.8-2.6-1.6-2.6-1.6-0.2-0.1-1.4-0.3-1.4-0.7-0.1-0.6-0.6 0.1-0.8 0.3-0.2 0.4 0.9 1.8 1.4 2 0 0 1.4 0.7 2.3 1.4 2.4 1.8 5.3 2.5 8.9 2.2 5.4-0.5 8.8-2.8 11.3-4.6 1.4-0.9 2.4-1.7 3.3-1.7 0.5 0 0.9-0.4 0.9-0.9-0.1-0.3-0.5-0.7-1-0.7z"/>
<path class="st8" d="m61.5 89.7c-3.6 1.9-6.7 10-7.6 15-0.4 1.1-0.4 3.6-0.4 4.8 0 2.4-2.6 1.5-0.4 3.8 0.5 0.5 4.1 5.1 4.6 3.6 0.6-0.5 0.3-1.5-0.2-1.8-1.7-1.4-1.5-5.7-1.5-7.4 0-3.1 0.9-6 2.2-8.8 0.8-1.9 1.8-3.5 2.6-5.5-0.2 0.5 4-5.4 0.7-3.7"/>
<path class="st3" d="m95.8 38c0.6 0.4 1.1 1.4 0.8 1.6-0.2 0.1-0.7-0.5-1.4-1.1-0.7-0.5-1.6-0.7-1.5-0.9 0.2-0.4 1.5 0 2.1 0.4z"/>
<path class="st3" d="m92.5 26v6l6.1-2.3s0.1-0.7-2.6-2.6-3.5-1.1-3.5-1.1z"/>
<path class="st2" d="m59.6 154.8c6.7 2.6 17-4.5 11.8-12.9-2.1-3.4-6-9.7-9.9-15.8-5.7-9-11.7-17.3-16.4-11.2-1.6 2.1-2.2 4.1-3.5 4.7-4.3 2.1-7.6-1.3-10.1 2.8-1.9 3.1 0.6 9.6-0.5 14.1-1 4.4-4 9.2 0.3 10.2 10.2 2.6 28.3 8.1 28.3 8.1z"/>
<path d="m103 146.6c0 1 0.2 1.9 0 3-7.6-1.6-15.4-1-23.2-0.9-1.8 0-3.6 0.3-5.4 0.6-0.7 0-2.8 1.6-3.3 1.6 0.3-0.3 0.4-0.7 0.7-1.2 0.1-0.3 0.3-0.4 0.3-0.9 0-0.2 0.3-0.2 0.3-0.3 0.9-3.4-0.7-6.6-2.5-9.1 0.4 0.3 0.7 1 1.2 1.2 1.3 0.3 2.2 1.2 3.4 1.5s2.4 0.4 3.6 0.6c2.4 0.1 4.6 0 7-0.3 2.1-0.4 4.2-0.6 6.1-1.6 5.1-2.4 10.3-5.4 14.1-11.4 0.1-0.1-0.1 2.8-0.1 3.1-0.4 7.7-2.2 9.2-2.2 14.1z"/>
<path d="m68.5 125s22 1.6 28.7-11.1l8.2 9.3v8.2s-10 4.3-15.3 4.7c-10.5 0.8-19.1 0.1-20.9-1.4 2.2-0.6 4.8-3.4 4.3-5.2-0.8-3.2-5-4.5-5-4.5z"/>
	<path d="m111.2 65.4s3.8 10.5-28.8 9c-3.1 6.4-3.9 16.3-4 19.2h5.3c12.8-0.4 23.3-1.5 28.8-6.4 5.2-4.7 9.9-6 9.9-6s-3.6-15.8-11.2-15.8zm-33.9 8.6c-8.2-1.1-11.7-4.7-11.7-4.7-8.2 0-11.8 16.4-11.8 16.4s1.7-1.4 5.3 0.5c2.3 1.2 3.7 4.6 8.7 6.1 2.6 0.8 6.3 1.1 10.2 1.2-0.8-2.3-2.8-9.9-0.7-19.5z"/>
<path class="st1" d="m110 63.9c-0.1 0.1-1.3 1.6-1.9 2.4-0.9 1.3-4.9 4.4-22.7 3.9h-0.2l-0.1 0.1c-1 0.9-1.9 2.1-2.6 3.6l-0.3 0.6h0.7c16.4 0.6 26.2-1.4 29.1-6 0.8-1.3 1-2.7 0.4-3.7-0.4-0.7-1.1-1.1-2-1.1h-0.2l-0.2 0.2zm-44.1 2.4c-1.2 1.2-0.8 2.3-0.4 2.7 0.3 0.4 2.9 4.1 12.1 5.2l1.5-4.4c-4.8-0.5-8.4-1.9-10.1-3.7-0.7-0.4-2-1-3.1 0.2z"/>
<path class="st4" d="m72.6 70.4c0 0.5-0.4 1-1 1-0.5 0-1-0.4-1-1 0-0.5 0.4-1 1-1s1 0.5 1 1z"/>
<path class="st4" d="m75.2 71.1c0 0.5-0.4 1-1 1-0.5 0-1-0.4-1-1 0-0.5 0.4-1 1-1 0.5 0 1 0.5 1 1z"/>
<path class="st4" d="m77.7 71.5c0 0.5-0.4 1-1 1-0.5 0-1-0.4-1-1 0-0.5 0.4-1 1-1 0.5 0.1 1 0.5 1 1z"/>
<path class="st2" d="m105.7 105.1c1.4-1.3 2.2-3 2.2-4.8 0-3.4-2.9-6.2-7.1-7.4l4.9 12.2z"/>
<path class="st2" d="m87.6 105.3l4.7-12.5c-4.2 1.2-7.2 4.1-7.2 7.5 0 1.9 1 3.7 2.5 5z"/>
<path class="st2" d="m97.7 103c-1 0.4-3.4 2.4-5.9 4.6 1.4 0.5 3 0.7 4.7 0.7 2 0 3.9-0.4 5.5-1-1.8-2.2-3.5-3.9-4.3-4.3z"/>
<path class="st4" d="m88.3 108.6l8.3-22 8.7 21.9s-5.4-7.4-7.5-7.4c-2.1 0.1-9.5 7.5-9.5 7.5z"/>
<path class="st0" d="m66.6 134.3c2.4-0.9 5.1-0.7 5.1-4 0-2.2-1.8-3.7-3.3-4.9-1.7-1.4-6.7-3.5-7.7-0.4"/>
<path class="st3" d="m69.4 82.6c-1.5 0.2-3.4-1.2-3.8-2.6-0.2-0.7 0.4-2.8-0.1-3.2-1.8 3.9-1.3 8-3.7 11.9 0.4 0.2 4.1-3.2 4.6-3.5 0.8-0.5 1.8-1.2 2.8-1.3 1.4-0.1 1.8-1.5 0.2-1.3"/>
<path class="st3" d="m100.6 85.6c-2.3-0.8-4.6-1-6.9-1.9-0.6-0.3-1.3-0.3-1.6-0.9-0.1-0.6 0.7-0.6 1-0.6 3.1-0.1 6-0.9 9-1.5 0.7-0.1 1.8 0 2.1 0.6 2.1 3.4 3.5 4.6 5 8 0 0.1-0.9 0.3-1.3 0-1.8-0.7-1.9-1-3.7-2.1-1.2-0.5-2.4-1.1-3.6-1.6z"/>
<path d="m112.9 116.2s-0.3 2.3-0.1 3.5c0 0.3 1.6 4 3.1 4.2 1.6 0 3.3 0.4 4.9 0.1 1.8-0.4 3.4-1 4.5-2.4 1.3-1.5 2.7-3 3-4.9 0 0 0.9-5.2-9.1-5.2-6.4 0.1-6.3 4.7-6.3 4.7z"/>
<path class="st3" d="m128.4 116.1c-0.5-3.3-4.5-4.4-7.3-4.7h-1.6s0 0.3-0.1 0.6-0.4 0.5-0.4 0.5c1.1 0.3 2.5 0.3 3.6 0.7 0.8 0.3 2.1 0.7 2.6 1.6 0.2 1-1.8 2.5-1.1 3.5 0.9 1.5 3.5-2.6 4.3-2.2"/>
<path class="st3" d="m114.8 85.1l-0.9-0.7c-1.1-0.9-2.4-1.9-4.1-1.5-0.1 0-0.2 0.1-0.3 0.2h-0.1c-0.5 0.4-0.6 0.8-0.4 1.3 0 0.1 0.1 0.1 0.1 0.2 0.5 0.5 1.3 1 2.1 1.5 0.6 0.3 1.2 0.6 1.7 1"/>
<path class="st8" d="m115 93.1c0.1 0.3 0 0.4 0 0.7-0.4 0.9-1.6 1.6-2.4 0.9-0.6-0.5-0.3-1.6 0.3-2.4 0.6-1 1.8-0.2 2.1 0.8z"/>
<path class="st8" d="m113 87c2.6 1.8 4.5 4.8 5.9 9.1 0.3 1.2 0.5 2.5 0.5 3.8 0 2.6-2.1 9-2.1 9-0.1 0.1-0.4 1.3-0.5 1.4-2.2 1-4.4 2.3-5.3 5.2 0 0.1 0.1 0.7 0.4 0.8l0.9 0.3c0.2 0.1 0.4 0 0.5-0.1 0.2-0.1 0.3-0.2 0.3-0.4 0.2-0.9 0.6-1.5 0.9-1.9 0.5-0.6 1.9-1.2 1.9-1.2 0.1-0.1 1.8-0.3 1.8-0.3 0.3-0.1 1-0.3 1.2-0.9v-0.4c0-0.3-0.3-1.2-0.3-1.4v-0.1c0.3-0.3 0.5-0.7 0.5-1.1 1.1-2.8 2-8.8 2-8.8 0.2-0.9-0.2-4.2-0.2-4.2-0.3-1.2-0.6-2.3-1.3-3.5 0 0-2.8-5.7-5.5-7.4m2.3 25.4s-0.1 0.1 0 0c-0.1 0.1-0.1 0 0 0-0.1 0-0.1 0 0 0-0.1 0.1-0.1 0.1 0 0z"/>
<path class="st8" d="m76.6 124.9c-1.2-18.4 1.4-30.3 1.4-30.4 0.1-0.4-0.2-0.8-0.6-0.9s-0.8 0.2-0.9 0.6c0 0.1-2.6 12.2-1.4 30.8"/>
<path class="st9" d="m75.1 125c0.1 1.3 0.2 2.6 0.3 4 0 0.4 0.4 0.7 0.8 0.7s0.7-0.4 0.7-0.8c-0.1-1.3-0.2-2.7-0.3-3.9"/>
	<path class="st3" d="m74.8 38c0 0.4 0.4 0.6 0.4 0.6 0.1 0 1.5 0.3 2.4 2 0 0 0.5 0.4 0.8 0.2 0.4-0.2 0.2-0.8 0.2-0.8-1.2-2.4-3.2-2.7-3.3-2.7 0 0.1-0.5 0.3-0.5 0.7z"/>
	<path class="st10" d="m80.4 47.6s0.3-0.4 1.2-0.4 1.4 0.4 1.4 0.4"/>
	<path class="st3" d="m80 47.5s0 0.3 0.1 0.4c0.4 0.1 0.8-0.2 1.4-0.2 0.7 0 1.4 0.4 1.6 0.3 0.2-0.2 0.1-0.5 0.1-0.5-0.1-0.1-0.7-0.5-1.7-0.5-1.1-0.1-1.5 0.4-1.5 0.5z"/>
<path class="st3" d="m101.8 60.6l3.7 7.5s1.4-0.6 2-1.1 1.3-1.5 1.3-1.5l-7-4.9z"/>
</svg>
